# xmcd
#
# Track frame offsets: 
#        150
#        19036
#        37032
#        48856
#        61377
#        75084
#        85982
#        98537
#        110330
#        120922
#        132367
#        145571
#        158331
#        170496
#        183604
#        197138
#        209941
#        228431
#
# Disc length: 3260 seconds
#
# Revision: 0
# Processed by: cddbd v1.5.2PL0 Copyright (c) Steve Scherf et al.
# Submitted via: ExactAudioCopy v1.1
#
DISCID=e40cba12
DTITLE=Louis Neefs - Louis Neefs 80 - CD 1
DYEAR=2017
DGENRE=Chanson
TTITLE0=Mijn Vriend Benjamin
TTITLE1=Margrietje (De Rozen Zullen Bloeien)
TTITLE2=Laat Ons Een Bloem
TTITLE3=Jennifer Jennings
TTITLE4=Iris
TTITLE5=Oh Oh Ik Heb Zorgen
TTITLE6=Sixteen Tons
TTITLE7='t Heukske
TTITLE8=De Poppenstoet
TTITLE9='k Zag Twee Beren
TTITLE10=Hé, Lieve Mensen (Met Ludwig En Günther Neefs)
TTITLE11=Mijn Dorpje In De Kempen
TTITLE12=Ein Kleines Kompliment
TTITLE13=Aan De Amsterdamse Grachten
TTITLE14=De Lichtjes Van De Schelde
TTITLE15=Wat Een Leven
TTITLE16=Omdat Ik Van Je Hou
TTITLE17=Susa-Nina
EXTD=
EXTT0=
EXTT1=
EXTT2=
EXTT3=
EXTT4=
EXTT5=
EXTT6=
EXTT7=
EXTT8=
EXTT9=
EXTT10=
EXTT11=
EXTT12=
EXTT13=
EXTT14=
EXTT15=
EXTT16=
EXTT17=
PLAYORDER=
